<svg xmlns="http://www.w3.org/2000/svg" viewBox="0 0 2560 1530" fill="none" stroke="#E6AC3D" stroke-width="1.2"><circle cx="1280" cy="560" r="140" stroke-opacity="0.220"/><circle cx="1280" cy="560" r="204" stroke-opacity="0.212" stroke-dasharray="2 10"/><circle cx="1280" cy="560" r="268" stroke-opacity="0.204" stroke-dasharray="14 8"/><circle cx="1280" cy="560" r="332" stroke-opacity="0.196"/><circle cx="1280" cy="560" r="396" stroke-opacity="0.188" stroke-dasharray="2 10"/><circle cx="1280" cy="560" r="460" stroke-opacity="0.180" stroke-dasharray="14 8"/><circle cx="1280" cy="560" r="524" stroke-opacity="0.172"/><circle cx="1280" cy="560" r="588" stroke-opacity="0.164" stroke-dasharray="2 10"/><circle cx="1280" cy="560" r="652" stroke-opacity="0.156" stroke-dasharray="14 8"/><circle cx="1280" cy="560" r="716" stroke-opacity="0.148"/><circle cx="1280" cy="560" r="780" stroke-opacity="0.140" stroke-dasharray="2 10"/><circle cx="1280" cy="560" r="844" stroke-opacity="0.132" stroke-dasharray="14 8"/><circle cx="1280" cy="560" r="908" stroke-opacity="0.124"/><circle cx="1280" cy="560" r="972" stroke-opacity="0.116" stroke-dasharray="2 10"/><circle cx="1280" cy="560" r="1036" stroke-opacity="0.108" stroke-dasharray="14 8"/><circle cx="1280" cy="560" r="1100" stroke-opacity="0.100"/><circle cx="1280" cy="560" r="1164" stroke-opacity="0.092" stroke-dasharray="2 10"/><circle cx="1280" cy="560" r="1228" stroke-opacity="0.084" stroke-dasharray="14 8"/><circle cx="1280" cy="560" r="1292" stroke-opacity="0.076"/><circle cx="1280" cy="560" r="1356" stroke-opacity="0.068" stroke-dasharray="2 10"/><circle cx="1280" cy="560" r="1420" stroke-opacity="0.060" stroke-dasharray="14 8"/><circle cx="1280" cy="560" r="1484" stroke-opacity="0.052"/></svg>
