<svg xmlns="http://www.w3.org/2000/svg" viewBox="0 0 512 512"><rect width="512" height="512" rx="80" fill="#4f46e5"/><g transform="translate(40,40) scale(2.4)" fill="#fff" fill-rule="evenodd"><path d="M32.727 0.0h114.545v16.364h-114.545z M16.364 16.364h16.364v81.818h-16.364z M147.273 16.364h16.364v81.818h-16.364z M16.364 0.0h16.364v16.364h-16.364z M147.273 0.0h16.364v16.364h-16.364z M32.727 98.182h16.364v16.364h-16.364z M130.909 98.182h16.364v16.364h-16.364z M49.091 114.545h16.364v16.364h-16.364z M114.545 114.545h16.364v16.364h-16.364z M65.455 130.909h16.364v16.364h-16.364z M98.182 130.909h16.364v16.364h-16.364z M81.818 147.273h16.364v16.364h-16.364z M114.545 32.727h16.364v16.364h-16.364z M98.182 49.091h16.364v16.364h-16.364z M81.818 65.455h16.364v16.364h-16.364z M65.455 81.818h16.364v16.364h-16.364z M49.091 65.455h16.364v16.364h-16.364z"/></g></svg>