<svg xmlns="http://www.w3.org/2000/svg" fill="none" viewBox="0 0 180 180"><rect width="180" height="180" fill="#232c30"/><g fill="#e1a32c" fill-rule="evenodd" clip-path="url(#a)"><path d="M32.727 0.0h114.545v16.364h-114.545z M16.364 16.364h16.364v81.818h-16.364z M147.273 16.364h16.364v81.818h-16.364z M16.364 0.0h16.364v16.364h-16.364z M147.273 0.0h16.364v16.364h-16.364z M32.727 98.182h16.364v16.364h-16.364z M130.909 98.182h16.364v16.364h-16.364z M49.091 114.545h16.364v16.364h-16.364z M114.545 114.545h16.364v16.364h-16.364z M65.455 130.909h16.364v16.364h-16.364z M98.182 130.909h16.364v16.364h-16.364z M81.818 147.273h16.364v16.364h-16.364z M114.545 32.727h16.364v16.364h-16.364z M98.182 49.091h16.364v16.364h-16.364z M81.818 65.455h16.364v16.364h-16.364z M65.455 81.818h16.364v16.364h-16.364z M49.091 65.455h16.364v16.364h-16.364z"/></g><defs><clipPath id="a"><path fill="#fff" d="M0 0h180v180H0z"/></clipPath></defs></svg>